<svg width="1372" height="391" viewBox="0 0 1372 391" fill="none" xmlns="http://www.w3.org/2000/svg">
<path fill-rule="evenodd" clip-rule="evenodd" d="M48.9995 244.385L0 293.257V195.513L48.9995 244.385Z" fill="#FF3728"/>
<path fill-rule="evenodd" clip-rule="evenodd" d="M48.9995 146.616L0 195.486V97.743L48.9995 146.616Z" fill="#FF3728"/>
<path fill-rule="evenodd" clip-rule="evenodd" d="M98.0044 97.7313L48.9973 48.8535H98.0044V97.7313Z" fill="#FFDD00"/>
<path fill-rule="evenodd" clip-rule="evenodd" d="M98.0044 48.8778L48.9973 0H98.0044V48.8778Z" fill="#FFDD00"/>
<path fill-rule="evenodd" clip-rule="evenodd" d="M98.0044 195.474L48.9973 146.596H98.0044V195.474Z" fill="#FFDD00"/>
<path fill-rule="evenodd" clip-rule="evenodd" d="M98.0044 146.621L48.9973 97.743H98.0044V146.621Z" fill="#FFDD00"/>
<path fill-rule="evenodd" clip-rule="evenodd" d="M196 195.513V391C180.866 391 166.509 387.576 153.707 381.466C120.75 365.693 97.9987 332.14 97.9987 293.257C97.9987 254.373 120.75 220.82 153.707 205.047C166.509 198.938 180.866 195.513 196 195.513Z" fill="#FF00D2"/>
<path fill-rule="evenodd" clip-rule="evenodd" d="M146.998 97.743V195.479C139.431 195.479 132.253 193.767 125.854 190.712C109.377 182.826 98.0013 166.051 98.0013 146.611C98.0013 127.171 109.377 110.396 125.854 102.51C132.253 99.4557 139.431 97.743 146.998 97.743Z" fill="#FF00D2"/>
<path fill-rule="evenodd" clip-rule="evenodd" d="M146.998 0V97.7356C139.431 97.7356 132.253 96.024 125.854 92.9697C109.377 85.0832 98.0013 68.3082 98.0013 48.8684C98.0013 29.4276 109.377 12.6527 125.854 4.7672C132.253 1.71264 139.431 0 146.998 0Z" fill="#FF00D2"/>
<path fill-rule="evenodd" clip-rule="evenodd" d="M220.384 195.475H244.756V97.7371H220.384V195.475Z" fill="#0000FF"/>
<path fill-rule="evenodd" clip-rule="evenodd" d="M196 391H293.495V293.262H196V391Z" fill="#42E000"/>
<path fill-rule="evenodd" clip-rule="evenodd" d="M293.505 293.265H391V195.527H293.505V293.265Z" fill="#42E000"/>
<path fill-rule="evenodd" clip-rule="evenodd" d="M220.385 97.7378H244.757V0H220.385V97.7378Z" fill="#0000FF"/>
<path fill-rule="evenodd" clip-rule="evenodd" d="M269.129 97.7378H293.501V0H269.129V97.7378Z" fill="#0000FF"/>
<path fill-rule="evenodd" clip-rule="evenodd" d="M366.617 97.7378H390.989V0H366.617V97.7378Z" fill="#0000FF"/>
<path fill-rule="evenodd" clip-rule="evenodd" d="M366.617 195.475H390.99V97.7371H366.617V195.475Z" fill="#0000FF"/>
<path fill-rule="evenodd" clip-rule="evenodd" d="M490.5 97.7493L393 0V195.5L490.5 97.7493Z" fill="#FF3728"/>
<path fill-rule="evenodd" clip-rule="evenodd" d="M539.252 342.131L490.501 293.262V391L539.252 342.131Z" fill="#FF3728"/>
<path fill-rule="evenodd" clip-rule="evenodd" d="M539.252 244.37L490.501 195.502V293.24L539.252 244.37Z" fill="#FF3728"/>
<path fill-rule="evenodd" clip-rule="evenodd" d="M417.375 293.24H441.75V195.502H417.375V293.24Z" fill="#0000FF"/>
<path fill-rule="evenodd" clip-rule="evenodd" d="M466.125 391H490.5V293.262H466.125V391Z" fill="#0000FF"/>
<path fill-rule="evenodd" clip-rule="evenodd" d="M490.501 97.7376H539.252V48.8687H490.501V97.7376Z" fill="#42E000"/>
<path fill-rule="evenodd" clip-rule="evenodd" d="M539.25 48.8693H588V0.000335693H539.25V48.8693Z" fill="#42E000"/>
<path fill-rule="evenodd" clip-rule="evenodd" d="M539.249 97.7371C531.721 97.7371 524.58 99.4496 518.213 102.504C501.819 110.389 490.503 127.163 490.503 146.602C490.503 166.041 501.819 182.815 518.213 190.701C524.58 193.755 531.721 195.467 539.249 195.467V97.7371Z" fill="#FF00D2"/>
<path fill-rule="evenodd" clip-rule="evenodd" d="M688.034 195.499V391H590V0H666.81V195.499H688.034Z" fill="#0000FF"/>
<path fill-rule="evenodd" clip-rule="evenodd" d="M786 0.0686786V391H736.983V195.499H712.509V0H736.983V0.0686786H786Z" fill="#0000FF"/>
<path fill-rule="evenodd" clip-rule="evenodd" d="M883.499 195.5L786 293.274H883.499V195.5Z" fill="#FFDD00"/>
<path fill-rule="evenodd" clip-rule="evenodd" d="M883.544 293.25L786.071 391H883.544V293.25Z" fill="#FFDD00"/>
<path fill-rule="evenodd" clip-rule="evenodd" d="M883.499 0H786L883.499 97.7742V0Z" fill="#FFDD00"/>
<path fill-rule="evenodd" clip-rule="evenodd" d="M883.544 97.75H786.071L883.544 195.5V97.75Z" fill="#FFDD00"/>
<path fill-rule="evenodd" clip-rule="evenodd" d="M981 195.231C965.949 195.231 951.671 198.655 938.942 204.764C906.163 220.537 883.54 254.087 883.54 292.969C883.54 331.85 906.163 365.4 938.942 381.172C951.671 387.282 965.949 390.706 981 390.706V195.231Z" fill="#FF00D2"/>
<path fill-rule="evenodd" clip-rule="evenodd" d="M1177 0V391C1146.73 391 1118.02 384.15 1092.42 371.93C1026.5 340.382 981 273.272 981 195.5C981 117.727 1026.5 50.6184 1092.42 19.0697C1118.02 6.84945 1146.73 0 1177 0Z" fill="#FF00D2"/>
<path fill-rule="evenodd" clip-rule="evenodd" d="M1274.5 97.7493L1177 0V195.5L1274.5 97.7493Z" fill="#FF3728"/>
<path fill-rule="evenodd" clip-rule="evenodd" d="M1323.25 342.131L1274.5 293.262V391L1323.25 342.131Z" fill="#FF3728"/>
<path fill-rule="evenodd" clip-rule="evenodd" d="M1323.25 244.37L1274.5 195.502V293.24L1323.25 244.37Z" fill="#FF3728"/>
<path fill-rule="evenodd" clip-rule="evenodd" d="M1201.38 293.24H1225.75V195.502H1201.38V293.24Z" fill="#0000FF"/>
<path fill-rule="evenodd" clip-rule="evenodd" d="M1250.12 391H1274.5V293.262H1250.12V391Z" fill="#0000FF"/>
<path fill-rule="evenodd" clip-rule="evenodd" d="M1274.5 97.7376H1323.25V48.8687H1274.5V97.7376Z" fill="#42E000"/>
<path fill-rule="evenodd" clip-rule="evenodd" d="M1323.25 48.8693H1372V0.000335693H1323.25V48.8693Z" fill="#42E000"/>
<path fill-rule="evenodd" clip-rule="evenodd" d="M1323.25 97.7371C1315.72 97.7371 1308.58 99.4496 1302.21 102.504C1285.82 110.389 1274.5 127.163 1274.5 146.602C1274.5 166.041 1285.82 182.815 1302.21 190.701C1308.58 193.755 1315.72 195.467 1323.25 195.467V97.7371Z" fill="#FF00D2"/>
</svg>
