<svg width="740" height="415" viewBox="0 0 740 415" fill="none" xmlns="http://www.w3.org/2000/svg">
<path d="M140.27 114.29C132.8 114.29 126.16 115.95 120.35 118.44C104.58 125.91 93.79 142.51 93.79 160.77C93.79 179.03 104.58 195.63 120.35 203.1C126.16 205.59 132.8 207.25 140.27 207.25V114.29ZM140.27 207.25C132.8 207.25 126.16 208.91 120.35 212.23C104.58 219.7 93.79 235.47 93.79 253.73C93.79 272.82 104.58 288.59 120.35 296.06C126.16 299.38 132.8 301.04 140.27 301.04V207.25ZM46.48 207.25C39.84 207.25 33.2 208.91 26.56 212.23C10.79 219.7 0 235.47 0 253.73C0 272.82 10.79 288.59 26.56 296.06C33.2 299.38 39.84 301.04 46.48 301.04V207.25ZM140.27 301.04C132.8 301.04 126.16 302.7 120.35 305.19C104.58 312.66 93.79 329.26 93.79 347.52C93.79 365.78 104.58 382.38 120.35 389.85C126.16 392.34 132.8 394 140.27 394V301.04ZM93.79 301.04C86.32 301.04 79.68 302.7 73.04 305.19C58.1 312.66 46.48 329.26 46.48 347.52C46.48 365.78 58.1 382.38 73.04 389.85C79.68 392.34 86.32 394 93.79 394V301.04ZM186.75 20.5C180.11 20.5 172.64 22.16 166.83 25.48C151.06 32.95 140.27 48.72 140.27 66.98C140.27 86.07 151.06 101.84 166.83 109.31C172.64 112.63 180.11 114.29 186.75 114.29V20.5ZM93.79 20.5C78.85 20.5 65.57 23.82 53.12 29.63C21.58 44.57 0 76.94 0 114.29C0 150.81 21.58 183.18 53.12 198.12C65.57 203.93 78.85 207.25 93.79 207.25V20.5ZM374.006 20.5C359.066 20.5 345.786 23.82 333.336 29.63C301.796 44.57 280.216 76.94 280.216 114.29C280.216 150.81 301.796 183.18 333.336 198.12C345.786 203.93 359.066 207.25 374.006 207.25V20.5ZM374.006 207.25C359.066 207.25 345.786 210.57 333.336 216.38C301.796 231.32 280.216 263.69 280.216 301.04C280.216 337.56 301.796 369.93 333.336 384.87C345.786 390.68 359.066 394 374.006 394V207.25ZM233.736 20.5C226.266 20.5 219.626 22.16 212.986 24.65C198.046 32.95 186.426 48.72 186.426 66.98C186.426 86.07 198.046 101.84 212.986 109.31C219.626 112.63 226.266 114.29 233.736 114.29V20.5ZM280.216 20.5C272.746 20.5 266.106 22.16 260.296 24.65C244.526 32.95 233.736 48.72 233.736 66.98C233.736 86.07 244.526 101.84 260.296 109.31C266.106 112.63 272.746 114.29 280.216 114.29V20.5ZM280.216 207.25C272.746 207.25 266.106 208.91 260.296 212.23C244.526 219.7 233.736 235.47 233.736 253.73C233.736 272.82 244.526 288.59 260.296 296.06C266.106 299.38 272.746 301.04 280.216 301.04V207.25ZM280.216 301.04C272.746 301.04 266.106 302.7 260.296 305.19C244.526 312.66 233.736 329.26 233.736 347.52C233.736 365.78 244.526 382.38 260.296 389.85C266.106 392.34 272.746 394 280.216 394V301.04ZM513.932 114.29C506.462 114.29 499.822 115.95 494.012 118.44C478.242 125.91 467.452 142.51 467.452 160.77C467.452 179.03 478.242 195.63 494.012 203.1C499.822 205.59 506.462 207.25 513.932 207.25V114.29ZM513.932 207.25C506.462 207.25 499.822 208.91 494.012 212.23C478.242 219.7 467.452 235.47 467.452 253.73C467.452 272.82 478.242 288.59 494.012 296.06C499.822 299.38 506.462 301.04 513.932 301.04V207.25ZM420.142 207.25C413.502 207.25 406.862 208.91 400.222 212.23C384.452 219.7 373.662 235.47 373.662 253.73C373.662 272.82 384.452 288.59 400.222 296.06C406.862 299.38 413.502 301.04 420.142 301.04V207.25ZM513.932 301.04C506.462 301.04 499.822 302.7 494.012 305.19C478.242 312.66 467.452 329.26 467.452 347.52C467.452 365.78 478.242 382.38 494.012 389.85C499.822 392.34 506.462 394 513.932 394V301.04ZM467.452 301.04C459.982 301.04 453.342 302.7 446.702 305.19C431.762 312.66 420.142 329.26 420.142 347.52C420.142 365.78 431.762 382.38 446.702 389.85C453.342 392.34 459.982 394 467.452 394V301.04ZM560.412 20.5C553.772 20.5 546.302 22.16 540.492 25.48C524.722 32.95 513.932 48.72 513.932 66.98C513.932 86.07 524.722 101.84 540.492 109.31C546.302 112.63 553.772 114.29 560.412 114.29V20.5ZM467.452 20.5C452.512 20.5 439.232 23.82 426.782 29.63C395.242 44.57 373.662 76.94 373.662 114.29C373.662 150.81 395.242 183.18 426.782 198.12C439.232 203.93 452.512 207.25 467.452 207.25V20.5ZM700.358 207.25C692.888 207.25 686.248 208.91 680.438 211.4C664.668 219.7 653.878 235.47 653.878 253.73C653.878 272.82 664.668 288.59 680.438 296.06C686.248 298.55 692.888 300.21 700.358 300.21V207.25ZM607.398 207.25C599.928 207.25 593.288 208.91 586.648 211.4C570.878 219.7 560.088 235.47 560.088 253.73C560.088 272.82 570.878 288.59 586.648 296.06C593.288 298.55 599.928 300.21 607.398 300.21V207.25ZM607.398 300.21C599.928 300.21 593.288 301.87 586.648 305.19C570.878 312.66 560.088 328.43 560.088 347.52C560.088 365.78 570.878 381.55 586.648 389.02C593.288 392.34 599.928 394 607.398 394V300.21ZM653.878 300.21C646.408 300.21 639.768 301.87 633.128 305.19C618.188 312.66 607.398 328.43 607.398 347.52C607.398 365.78 618.188 381.55 633.128 389.02C639.768 392.34 646.408 394 653.878 394V300.21ZM653.878 20.5C638.938 20.5 625.658 23.82 613.208 29.63C581.668 44.57 560.088 76.94 560.088 113.46C560.088 150.81 581.668 183.18 613.208 198.12C625.658 203.93 638.938 207.25 653.878 207.25V20.5ZM746.838 20.5C732.728 20.5 718.618 23.82 706.998 29.63C675.458 44.57 653.878 76.94 653.878 113.46C653.878 150.81 675.458 183.18 706.998 198.12C718.618 203.93 732.728 207.25 746.838 207.25V20.5ZM886.784 114.29C880.144 114.29 872.674 115.12 866.864 118.44C851.094 125.91 840.304 141.68 840.304 160.77C840.304 179.03 851.094 194.8 866.864 203.1C872.674 205.59 880.144 207.25 886.784 207.25V114.29ZM840.304 207.25C832.834 207.25 826.194 208.91 820.384 211.4C804.614 219.7 792.994 235.47 792.994 253.73C792.994 272.82 804.614 288.59 820.384 296.06C826.194 299.38 832.834 300.21 840.304 300.21V207.25ZM840.304 300.21C832.834 300.21 826.194 301.87 820.384 305.19C804.614 312.66 792.994 328.43 792.994 347.52C792.994 365.78 804.614 381.55 820.384 389.02C826.194 392.34 832.834 394 840.304 394V300.21ZM792.994 300.21C786.354 300.21 778.884 301.87 773.074 305.19C757.304 312.66 746.514 328.43 746.514 347.52C746.514 365.78 757.304 381.55 773.074 389.02C778.884 392.34 786.354 394 792.994 394V300.21ZM886.784 20.5C880.144 20.5 872.674 22.16 866.864 24.65C851.094 32.95 840.304 48.72 840.304 66.98C840.304 86.07 851.094 101.84 866.864 109.31C872.674 112.63 880.144 113.46 886.784 113.46V20.5ZM934.094 207.25C919.154 207.25 905.874 210.57 893.424 216.38C861.884 231.32 840.304 263.69 840.304 301.04C840.304 337.56 861.884 369.93 893.424 384.87C905.874 390.68 919.154 394 934.094 394V207.25Z" fill="#42E000"/>
</svg>
