<svg width="2196" height="2117" viewBox="0 0 2196 2117" fill="none" xmlns="http://www.w3.org/2000/svg">
<path fill-rule="evenodd" clip-rule="evenodd" d="M944.951 631.597C961.075 629.94 976.496 632.438 992.097 639.241C1002.56 643.803 1011.7 649.712 1019.22 655.549L972.843 798.589H822.74C819.909 790.641 817.395 781.418 816.094 771.448C813.798 753.813 815.764 737.788 822.11 722.445C830.855 701.308 848.34 681.085 874.073 662.352C898.975 644.219 922.824 633.872 944.951 631.597ZM735.751 530.513C730.231 547.745 732.694 567.289 744.119 583.049C755.544 598.812 773.329 607.198 791.388 607.263L806.634 628.288C687.565 739.539 780.627 867.91 780.627 867.91H1023.09L1098.02 636.803C1098.02 636.803 1004.96 508.441 862.592 587.546L847.347 566.517C852.862 549.285 850.4 529.745 838.974 513.981C827.549 498.218 809.764 489.836 791.705 489.771L571.101 185.473L662.085 119.225L643.812 94.0153C626.969 95.7835 609.694 88.7622 599.022 74.0415C588.363 59.3336 587.036 40.7031 593.909 25.1798L575.653 0L484.669 66.2476L454.011 23.9609L398.057 64.7069L735.751 530.513Z" fill="white"/>
<path fill-rule="evenodd" clip-rule="evenodd" d="M1373.05 720.404C1379.61 735.262 1382 750.73 1380.37 767.703C1379.27 779.081 1376.49 789.617 1373.28 798.591H1223.2L1176.82 655.547C1184.34 649.714 1193.48 643.8 1203.94 639.238C1219.54 632.44 1234.96 629.938 1251.09 631.599C1273.22 633.869 1297.07 644.221 1321.96 662.349C1346.87 680.482 1364.06 700.014 1373.05 720.404ZM1357.07 513.983C1345.64 529.747 1343.17 549.287 1348.7 566.518L1333.45 587.544C1191.08 508.442 1098.02 636.805 1098.02 636.805L1172.94 867.907H1415.41C1415.41 867.907 1508.47 739.541 1389.4 628.29L1404.65 607.26C1422.71 607.196 1440.49 598.81 1451.92 583.05C1463.35 567.287 1465.81 547.746 1460.29 530.515L1680.89 226.216L1771.88 292.464L1800.68 252.731L1766.43 258.168L1824.06 178.676L1829.49 213.002L1858.31 173.243L1767.32 106.991L1797.98 64.7043L1742.03 23.9626L1404.34 489.773C1386.28 489.833 1368.49 498.219 1357.07 513.983Z" fill="white"/>
<path fill-rule="evenodd" clip-rule="evenodd" d="M1421.07 1155.88C1409 1166.72 1395.06 1173.78 1378.44 1177.47C1367.31 1179.94 1356.45 1180.54 1346.94 1180.25L1300.56 1037.21L1421.98 948.802C1429.84 954.167 1438.28 961.055 1445.83 969.617C1457.11 982.381 1464.25 996.307 1467.66 1012.19C1472.34 1033.98 1469.89 1059.91 1460.38 1089.25C1450.86 1118.59 1437.64 1141 1421.07 1155.88ZM1612.02 1076.85C1593.53 1070.83 1574.22 1074.52 1559.58 1085.11L1534.91 1077.08C1565.99 916.936 1415.41 867.902 1415.41 867.902L1219.25 1010.73L1294.18 1241.83C1294.18 1241.83 1444.75 1290.86 1513.54 1143L1538.2 1151.03C1543.84 1168.23 1557.3 1182.59 1575.79 1188.6C1594.27 1194.63 1613.58 1190.93 1628.23 1180.35L1985.18 1296.58L1950.42 1403.77L1973.74 1411.36L1981.32 1387.99L2004.64 1395.59L1997.06 1418.96L2020.34 1426.54L2027.92 1403.17L2051.22 1410.76L2043.65 1434.13L2090.27 1449.31L2125.02 1342.12L2174.63 1358.27L2196 1292.35L1649.6 1114.43C1643.96 1097.23 1630.51 1082.87 1612.02 1076.85Z" fill="white"/>
<path fill-rule="evenodd" clip-rule="evenodd" d="M1022.64 1336.22C1008.62 1328.06 997.613 1316.95 988.984 1302.26C983.194 1292.41 979.267 1282.24 976.603 1273.09L1098.02 1184.68L1219.43 1273.09C1216.77 1282.24 1212.84 1292.41 1207.05 1302.26C1198.42 1316.95 1187.42 1328.06 1173.4 1336.22C1154.16 1347.41 1128.8 1353.09 1098.02 1353.09C1067.24 1353.09 1041.88 1347.41 1022.64 1336.22ZM1156.64 1493.8C1156.64 1474.31 1147.17 1457.05 1132.6 1446.37V1420.37C1294.18 1400.5 1294.18 1241.84 1294.18 1241.84L1098.02 1099.01L901.858 1241.84C901.858 1241.84 901.862 1400.5 1063.44 1420.37V1446.37C1048.86 1457.05 1039.4 1474.31 1039.4 1493.8C1039.4 1513.28 1048.86 1530.54 1063.44 1541.23V1917.36H950.982V1941.92H975.498V2040.17H950.982V2064.73H1063.44V2117H1132.6V1541.23C1147.17 1530.54 1156.64 1513.28 1156.64 1493.8Z" fill="white"/>
<path fill-rule="evenodd" clip-rule="evenodd" d="M728.345 1012.13C731.754 996.247 738.892 982.324 750.168 969.556C757.726 960.994 766.163 954.111 774.025 948.742L895.44 1037.15L849.053 1180.21C840.634 1180.46 831.106 1180 821.243 1178.16C803.801 1174.9 789.198 1168.08 776.603 1157.28C759.242 1142.42 745.457 1119.51 735.625 1089.19C726.114 1059.85 723.664 1033.92 728.345 1012.13ZM620.214 1188.54C638.701 1182.52 652.156 1168.16 657.796 1150.98L682.463 1142.94C751.247 1290.81 901.821 1241.77 901.821 1241.77L976.746 1010.67L780.59 867.842C780.59 867.842 630.016 916.875 661.089 1077.02L636.423 1085.05C621.777 1074.46 602.472 1070.77 583.984 1076.79C565.493 1082.81 552.042 1097.17 546.398 1114.36L189.454 1230.59L153.704 1120.33L130.404 1127.92L145.88 1175.66L105.9 1155.25L84.1109 1144.12L52.6352 1206.03L37.1585 1158.28L13.8536 1165.87L49.6032 1276.14L0 1292.28L21.3735 1358.21L567.771 1180.29C582.417 1190.87 601.727 1194.57 620.214 1188.54Z" fill="white"/>
</svg>
