<svg width="740" height="415" viewBox="0 0 740 415" fill="none" xmlns="http://www.w3.org/2000/svg">
<path d="M92.96 20.5V207.25L186.75 114.29L92.96 20.5ZM92.96 207.25V394L186.75 301.04L92.96 207.25ZM0 20.5V114.29L46.48 66.98L0 20.5ZM46.48 20.5V114.29L92.96 66.98L46.48 20.5ZM46.48 207.25V301.04L92.96 254.56L46.48 207.25ZM46.48 301.04V394L92.96 347.52L46.48 301.04ZM279.386 207.25V394L373.176 301.04L279.386 207.25ZM232.906 20.5V114.29L279.386 66.98L232.906 20.5ZM279.386 20.5V114.29L325.866 66.98L279.386 20.5ZM232.906 114.29V207.25L279.386 160.77L232.906 114.29ZM279.386 114.29V207.25L325.866 160.77L279.386 114.29ZM186.426 207.25V301.04L232.906 253.73L186.426 207.25ZM186.426 114.29V207.25L232.906 160.77L186.426 114.29ZM466.642 301.04L372.852 207.25V394L466.642 301.04ZM559.602 301.04L466.642 207.25V394L559.602 301.04ZM372.852 114.29V207.25L420.162 160.77L372.852 114.29ZM420.162 114.29V207.25L466.642 160.77L420.162 114.29ZM513.122 114.29V207.25L559.602 160.77L513.122 114.29ZM372.852 20.5V114.29L420.162 66.98L372.852 20.5ZM513.122 20.5V114.29L559.602 66.98L513.122 20.5ZM652.237 114.29L559.277 20.5V207.25L652.237 114.29ZM605.757 253.73L559.277 207.25V300.21L605.757 253.73ZM652.237 347.52L605.757 300.21V394L652.237 347.52ZM699.547 347.52L652.237 300.21V394L699.547 347.52ZM699.547 253.73L652.237 207.25V300.21L699.547 253.73ZM699.547 160.77L652.237 114.29V207.25L699.547 160.77ZM746.027 66.98L699.547 20.5V113.46L746.027 66.98ZM839.493 301.04L745.703 207.25V394L839.493 301.04ZM932.453 301.04L839.493 207.25V394L932.453 301.04ZM839.493 66.98L792.183 20.5V114.29L839.493 66.98ZM885.973 66.98L839.493 20.5V114.29L885.973 66.98ZM932.129 20.5V207.25L1025.92 114.29L932.129 20.5ZM1025.92 20.5V207.25L1118.88 114.29L1025.92 20.5ZM932.129 207.25V394L1025.92 301.04L932.129 207.25ZM1025.92 207.25V301.04L1072.4 253.73L1025.92 207.25ZM1025.92 301.04V394L1072.4 347.52L1025.92 301.04ZM1118.55 20.5V207.25L1212.34 114.29L1118.55 20.5ZM1118.55 207.25V394L1212.34 301.04L1118.55 207.25ZM1212.34 20.5V207.25L1305.3 114.29L1212.34 20.5ZM1398.77 301.04L1304.98 207.25V394L1398.77 301.04ZM1491.73 301.04L1398.77 207.25V394L1491.73 301.04ZM1398.77 66.98L1351.46 20.5V114.29L1398.77 66.98ZM1445.25 66.98L1398.77 20.5V114.29L1445.25 66.98ZM1585.2 301.04L1491.41 207.25V394L1585.2 301.04ZM1678.16 301.04L1585.2 207.25V394L1678.16 301.04ZM1491.41 114.29V207.25L1538.72 160.77L1491.41 114.29ZM1538.72 114.29V207.25L1585.2 160.77L1538.72 114.29ZM1631.68 114.29V207.25L1678.16 160.77L1631.68 114.29ZM1491.41 20.5V114.29L1538.72 66.98L1491.41 20.5ZM1631.68 20.5V114.29L1678.16 66.98L1631.68 20.5Z" fill="#FF3728"/>
</svg>
