<svg width="740" height="415" viewBox="0 0 740 415" fill="none" xmlns="http://www.w3.org/2000/svg">
<path d="M47.31 20.5H23.24V114.29V207.25H47.31V114.29V20.5ZM71.38 207.25H47.31V394H94.62V207.25V114.29H71.38V207.25ZM166 114.29V207.25H141.93V394H189.24V207.25V114.29V20.5H166V114.29ZM330.787 394H378.097V207.25H330.787V394ZM306.717 114.29V207.25H329.957V114.29V20.5H306.717V114.29ZM259.407 114.29V207.25H282.647V114.29V20.5H259.407V114.29ZM212.097 207.25V208.08V301.04H236.167V208.08V207.25V114.29H212.097V207.25ZM400.955 394H447.435V207.25H400.955V394ZM493.915 207.25H541.225V20.5H493.915V207.25ZM424.195 114.29V207.25H447.435V114.29V20.5H424.195V114.29ZM682.565 394H729.875V207.25H682.565V394ZM658.495 114.29V207.25H681.735V114.29V20.5H658.495V114.29ZM611.185 114.29V207.25H634.425V114.29V20.5H611.185V114.29ZM563.875 207.25V208.08V301.04H587.945V208.08V207.25V114.29H563.875V207.25ZM871.422 394H918.732V207.25H871.422V394ZM871.422 20.5H847.352V114.29V207.25H871.422V114.29V20.5ZM800.042 301.04V394H824.112V301.04V207.25H800.042V301.04ZM752.732 394H775.972V301.04H752.732V394Z" fill="#0000FF"/>
</svg>
