<svg width="740" height="415" viewBox="0 0 740 415" fill="none" xmlns="http://www.w3.org/2000/svg">
<path d="M186.75 66.98H140.27V114.29H186.75V66.98ZM93.79 301.04H47.31V347.52H93.79V301.04ZM140.27 66.98H93.79V114.29H140.27V66.98ZM47.31 347.52H0V394H47.31V347.52ZM93.79 301.04H186.75V207.25H93.79V301.04ZM326.696 253.73H373.176V207.25H326.696H280.216V253.73H326.696ZM326.696 66.98H280.216V114.29H326.696V66.98ZM373.176 20.5H326.696V66.98H373.176V20.5ZM232.906 347.52H280.216V301.04H232.906V347.52ZM186.426 394H232.906V347.52H186.426V394ZM186.426 114.29V207.25H280.216V114.29H186.426ZM372.852 394H466.642V301.04H372.852V394ZM559.602 20.5H466.642V114.29H559.602V20.5ZM559.602 253.73H466.642V301.04H559.602V253.73ZM419.332 114.29V207.25H466.642V114.29H419.332ZM605.757 394H652.237V301.04H605.757V394ZM605.757 114.29H559.277V160.77H605.757V114.29ZM652.237 160.77H605.757V207.25H652.237V160.77ZM698.717 114.29V66.98H652.237V114.29H698.717ZM746.027 66.98V20.5H698.717V66.98H746.027ZM698.717 253.73V207.25H652.237V253.73H698.717ZM746.027 301.04V253.73H698.717V301.04H746.027ZM885.973 207.25H839.493V253.73H885.973V207.25ZM792.183 301.04H745.703V347.52H792.183V301.04ZM839.493 347.52H792.183V394H839.493V347.52ZM885.973 253.73H839.493V301.04H885.973V253.73ZM839.493 114.29H932.453V20.5H839.493V114.29ZM839.493 114.29H745.703V207.25H839.493V114.29ZM978.609 301.04H932.129V347.52H978.609V301.04ZM1025.92 301.04H978.609V347.52H1025.92V301.04ZM978.609 114.29H932.129V160.77H978.609V114.29ZM1025.92 160.77H978.609V207.25H1025.92V160.77ZM1072.4 20.5H1025.92V66.98H1072.4V20.5ZM1072.4 66.98H1025.92V114.29H1072.4V66.98ZM1118.88 207.25H1025.92V301.04H1118.88V207.25ZM1118.55 394H1212.34V301.04H1118.55V394ZM1305.3 20.5H1212.34V114.29H1305.3V20.5ZM1305.3 253.73H1212.34V301.04H1305.3V253.73ZM1165.03 114.29V207.25H1212.34V114.29H1165.03ZM1397.94 114.29H1491.73V20.5H1397.94V114.29ZM1304.98 394H1397.94V301.04H1304.98V394ZM1397.94 114.29H1304.98V207.25H1397.94V114.29ZM1491.73 207.25H1397.94V301.04H1491.73V207.25ZM1491.41 394H1585.2V301.04H1491.41V394ZM1585.2 114.29H1491.41V207.25H1585.2V114.29ZM1678.16 207.25H1585.2V301.04H1678.16V207.25Z" fill="#0000FF"/>
</svg>
